<!-- <svg xmlns="http://www.w3.org/2000/svg" width="82" height="40" fill="none" viewBox="0 0 82 40"><path fill="#FFD43D" d="M73.365 19.71c0 2.904-2.241 5.31-5.27 5.31-3.03 0-5.228-2.406-5.228-5.31 0-2.905 2.199-5.312 5.228-5.312s5.27 2.407 5.27 5.311Z"></path><path fill="#FF0C81" d="M48.764 19.544c0 2.946-2.323 5.145-5.27 5.145-2.904 0-5.227-2.2-5.227-5.145 0-2.947 2.323-5.104 5.228-5.104 2.946 0 5.27 2.158 5.27 5.104Z"></path><path fill="#11EEFC" d="M20.074 25.02c3.029 0 5.27-2.406 5.27-5.31 0-2.905-2.241-5.312-5.27-5.312-3.03 0-5.228 2.407-5.228 5.311 0 2.905 2.199 5.312 5.228 5.312Z"></path><path fill="#171A26" d="M68.095 30.54c-6.307 0-11.12-4.897-11.12-10.872 0-5.934 4.855-10.83 11.12-10.83 6.349 0 11.162 4.938 11.162 10.83 0 5.975-4.855 10.871-11.162 10.871Zm0-5.52c3.03 0 5.27-2.406 5.27-5.31 0-2.905-2.24-5.312-5.27-5.312-3.029 0-5.228 2.407-5.228 5.311 0 2.905 2.199 5.312 5.228 5.312ZM43.08 40c-4.813 0-8.506-2.116-10.373-5.934l4.896-2.655c.913 1.784 2.614 3.195 5.394 3.195 3.486 0 5.85-2.448 5.85-6.473v-.374c-1.12 1.411-3.111 2.49-6.016 2.49-5.768 0-10.373-4.481-10.373-10.581 0-5.934 4.813-10.788 11.12-10.788 6.431 0 11.162 4.605 11.162 10.788v8.299C54.74 35.27 49.76 40 43.08 40Zm.415-15.311c2.946 0 5.27-2.2 5.27-5.145 0-2.947-2.324-5.104-5.27-5.104-2.905 0-5.228 2.158-5.228 5.104s2.323 5.145 5.228 5.145ZM20.074 30.54c-6.307 0-11.12-4.897-11.12-10.872 0-5.934 4.854-10.83 11.12-10.83 6.348 0 11.162 4.938 11.162 10.83 0 5.975-4.855 10.871-11.162 10.871Zm0-5.52c3.029 0 5.27-2.406 5.27-5.31 0-2.905-2.241-5.312-5.27-5.312-3.03 0-5.228 2.407-5.228 5.311 0 2.905 2.199 5.312 5.228 5.312ZM0 0h5.892v30H0V0ZM82 6.5a2.5 2.5 0 1 1-5 0 2.5 2.5 0 0 1 5 0Z"></path></svg> -->
<svg version="1.1" xmlns="http://www.w3.org/2000/svg" width="1280" height="332">
<path d="M0 0 C2.85 0.86 5.16 1.99 7.75 3.46 C8.73 4.02 9.72 4.57 10.74 5.15 C12.33 6.05 12.33 6.05 13.94 6.98 C15.05 7.6 16.15 8.23 17.29 8.87 C25.88 13.75 34.4 18.72 42.92 23.73 C50.33 28.07 57.82 32.26 65.39 36.33 C66.16 36.74 66.92 37.16 67.71 37.58 C68.37 37.94 69.04 38.3 69.72 38.66 C70.35 39.04 70.98 39.41 71.63 39.79 C72.32 40.19 73.01 40.59 73.72 41.01 C75.63 42.79 75.63 42.79 76.12 45.35 C76.12 46.89 76.12 46.89 76.11 48.47 C76.12 49.65 76.12 50.83 76.13 52.05 C76.12 53.35 76.1 54.65 76.09 55.98 C76.09 57.36 76.09 58.74 76.09 60.12 C76.09 63.87 76.07 67.62 76.04 71.37 C76.01 75.28 76.01 79.2 76.01 83.11 C75.99 90.53 75.96 97.95 75.92 105.36 C75.88 113.8 75.85 122.25 75.83 130.69 C75.79 148.06 75.72 165.42 75.63 182.79 C71.7 184.79 67.77 186.79 63.83 188.77 C62.5 189.45 61.16 190.13 59.82 190.81 C57.9 191.79 55.98 192.76 54.05 193.73 C52.89 194.32 51.74 194.9 50.54 195.51 C47.63 196.79 47.63 196.79 44.63 196.79 C43.59 193.65 43.56 191.66 43.66 188.38 C43.69 187.25 43.72 186.12 43.76 184.97 C43.79 183.73 43.83 182.49 43.87 181.22 C43.94 178.52 44.02 175.82 44.08 173.13 C44.1 172.42 44.12 171.7 44.14 170.97 C44.39 161.04 44.5 151.11 44.61 141.18 C44.7 133.09 44.85 125.02 45.12 116.94 C45.35 109.88 45.48 102.83 45.49 95.76 C45.51 92.03 45.57 88.31 45.75 84.58 C46.44 70.82 46.44 70.82 42.63 57.79 C35.86 50.82 27.07 47.08 18.23 43.38 C12.54 40.86 7.32 37.66 2.01 34.42 C-3.56 31.13 -9.14 27.89 -14.82 24.8 C-16.09 24.11 -16.09 24.11 -17.38 23.41 C-18.95 22.57 -20.52 21.73 -22.1 20.9 C-27.26 18.12 -27.26 18.12 -28.37 14.79 C-27.69 14.41 -27.01 14.03 -26.3 13.63 C-23.22 11.89 -20.14 10.16 -17.06 8.42 C-15.98 7.81 -14.91 7.21 -13.81 6.59 C-12.78 6.01 -11.75 5.43 -10.69 4.83 C-9.74 4.3 -8.8 3.76 -7.82 3.21 C-1.98 -0.17 -1.98 -0.17 0 0 Z " fill="#1FB8BD" transform="translate(155.367919921875,20.208251953125)"/>
<path d="M0 0 C3.76 0.58 6.46 1.62 9.72 3.56 C11.09 4.37 11.09 4.37 12.5 5.2 C13.49 5.79 14.48 6.39 15.5 7 C17.67 8.28 19.84 9.57 22.01 10.85 C23.16 11.53 24.31 12.22 25.47 12.9 C30.81 16.08 36.18 19.22 41.55 22.37 C43.39 23.44 45.22 24.52 47.06 25.6 C56.23 30.98 65.43 36.3 74.65 41.6 C82.65 46.2 90.61 50.88 98.53 55.61 C101.02 57.09 103.51 58.55 106 60 C106.94 60.56 107.89 61.12 108.86 61.7 C109.81 62.25 110.77 62.8 111.75 63.37 C112.61 63.87 113.47 64.38 114.36 64.9 C117.53 66.22 119.59 66.37 123 66 C125.71 64.95 125.71 64.95 128.32 63.36 C129.32 62.79 130.32 62.22 131.35 61.63 C132.41 61.01 133.47 60.39 134.56 59.75 C135.67 59.11 136.78 58.48 137.92 57.82 C140.2 56.52 142.47 55.21 144.74 53.89 C147.68 52.19 150.62 50.5 153.57 48.82 C160.68 44.78 167.78 40.72 174.83 36.59 C175.79 36.03 176.75 35.47 177.74 34.9 C179.58 33.82 181.42 32.74 183.25 31.66 C184.08 31.18 184.9 30.7 185.75 30.2 C186.48 29.78 187.2 29.35 187.95 28.91 C190 28 190 28 194 28 C194.25 32.59 194.43 37.17 194.55 41.77 C194.6 43.33 194.67 44.89 194.75 46.45 C195.45 59.31 195.45 59.31 192.13 63.17 C189.49 64.76 186.87 65.88 184 67 C182.15 68.01 180.32 69.06 178.5 70.12 C176.52 71.23 174.54 72.33 172.56 73.44 C171.5 74.03 170.43 74.63 169.33 75.24 C157.85 81.65 146.37 88.06 134.85 94.41 C133.02 95.43 131.2 96.47 129.4 97.54 C128.62 98 127.84 98.46 127.03 98.93 C126.03 99.54 126.03 99.54 125.02 100.15 C122.46 101.23 120.76 101.31 118 101 C115.67 99.97 115.67 99.97 113.25 98.5 C112.32 97.95 111.4 97.4 110.45 96.84 C109.46 96.23 108.46 95.62 107.44 95 C105.27 93.71 103.1 92.42 100.93 91.12 C100.37 90.79 99.81 90.45 99.23 90.1 C93.45 86.66 87.61 83.33 81.77 80 C71.5 74.17 61.29 68.27 51.1 62.3 C45.66 59.12 40.21 55.97 34.74 52.85 C34.12 52.5 33.5 52.15 32.86 51.78 C29.87 50.08 26.87 48.38 23.88 46.68 C21.68 45.43 19.48 44.16 17.31 42.87 C14.97 41.55 12.76 40.42 10.32 39.34 C6.61 37.52 3.89 35.97 1 33 C-0.71 27.28 -0.56 21.92 -0.31 16 C-0.3 14.45 -0.28 12.89 -0.28 11.34 C-0.25 7.56 -0.15 3.78 0 0 Z " fill="#1FB8BD" transform="translate(80,169)"/>
<path d="M0 0 C6.63 3.78 13.2 7.66 19.69 11.69 C20.3 12.06 20.91 12.42 21.54 12.8 C25.8 15.48 25.8 15.48 26.89 18.27 C26.93 18.84 26.96 19.41 27 20 C26.1 20.5 25.2 21 24.27 21.51 C13.43 27.55 2.75 33.83 -7.92 40.17 C-12.87 43.11 -17.82 46.04 -22.77 48.98 C-24.5 50 -26.23 51.03 -27.97 52.05 C-33.22 55.17 -38.47 58.28 -43.73 61.38 C-45.53 62.44 -47.33 63.5 -49.12 64.56 C-49.99 65.07 -50.86 65.59 -51.75 66.11 C-56.77 69.08 -61.78 72.07 -66.78 75.07 C-67.35 75.41 -67.92 75.76 -68.51 76.11 C-71.3 77.79 -74.09 79.47 -76.88 81.15 C-77.88 81.76 -78.88 82.36 -79.91 82.98 C-80.8 83.52 -81.69 84.05 -82.6 84.6 C-84.69 85.82 -86.84 86.92 -89 88 C-89.33 116.05 -89.66 144.1 -90 173 C-104.93 164.86 -104.93 164.86 -109.62 162.25 C-110.33 161.86 -111.04 161.48 -111.76 161.08 C-116.89 158.23 -116.89 158.23 -118 156 C-118.14 153.35 -118.22 150.72 -118.26 148.07 C-118.27 147.25 -118.29 146.43 -118.3 145.58 C-118.43 138.02 -118.5 130.46 -118.55 122.9 C-118.58 117.82 -118.64 112.74 -118.73 107.66 C-118.83 102.75 -118.88 97.84 -118.89 92.93 C-118.91 91.06 -118.94 89.19 -118.98 87.31 C-119.32 72.68 -119.32 72.68 -116.11 68.59 C-113.79 67.01 -111.62 65.98 -109 65 C-108.1 64.44 -107.2 63.89 -106.28 63.32 C-105.53 62.88 -104.78 62.44 -104.01 61.99 C-103.15 61.49 -102.29 60.98 -101.4 60.46 C-100.51 59.94 -99.61 59.41 -98.69 58.88 C-96.73 57.73 -94.78 56.58 -92.82 55.43 C-91.85 54.86 -90.87 54.28 -89.86 53.69 C-85.56 51.15 -81.28 48.58 -77 46 C-70.12 41.86 -63.23 37.76 -56.31 33.69 C-45.19 27.13 -34.11 20.49 -23.05 13.83 C-18.18 10.91 -13.31 7.98 -8.44 5.06 C-6.79 4.07 -5.14 3.09 -3.5 2.1 C-2.33 1.4 -1.17 0.7 0 0 Z " fill="#1FB8BD" transform="translate(154,71)"/>
<path d="M0 0 C1.98 -0.01 1.98 -0.01 4 -0.02 C7.56 0.25 7.56 0.25 11.56 2.25 C11.89 20.73 12.22 39.21 12.56 58.25 C15.53 55.61 18.5 52.97 21.56 50.25 C24.71 48.41 24.71 48.41 27.38 47.31 C28.71 46.74 28.71 46.74 30.08 46.16 C39.45 42.72 50.79 42.9 59.99 46.79 C67.68 51.15 73.53 56.94 76.56 65.25 C76.83 65.97 77.09 66.69 77.36 67.43 C80.17 76.27 79.94 85.01 79.86 94.17 C79.85 95.88 79.85 97.59 79.84 99.3 C79.83 103.77 79.8 108.23 79.77 112.7 C79.74 117.27 79.72 121.84 79.71 126.42 C79.68 135.36 79.63 144.31 79.56 153.25 C75.24 154.55 71.88 155.53 67.38 154.94 C66.56 154.84 65.74 154.74 64.89 154.64 C60.61 153.93 60.61 153.93 58.56 153.25 C57.18 150.49 57.42 148.26 57.4 145.17 C57.39 143.89 57.38 142.61 57.37 141.29 C57.37 140.61 57.37 139.92 57.36 139.21 C57.35 137.05 57.33 134.9 57.31 132.74 C57.25 126.6 57.19 120.46 57.16 114.32 C57.14 110.56 57.1 106.81 57.06 103.05 C57.05 101.63 57.04 100.21 57.03 98.79 C57.01 89.53 56.01 81.18 53.56 72.25 C53.4 71.49 53.25 70.73 53.08 69.95 C52.72 68.05 52.72 68.05 50.67 67.24 C49.5 66.9 49.5 66.9 48.31 66.56 C47.54 66.33 46.78 66.1 45.98 65.86 C45.19 65.66 44.39 65.46 43.56 65.25 C42.75 65.03 41.94 64.82 41.11 64.59 C35.35 63.82 28.81 66.09 24.12 69.44 C21.56 71.25 21.56 71.25 17.56 71.25 C17.76 71.83 17.97 72.42 18.18 73.02 C18.65 75.76 18.15 76.58 16.75 78.94 C11.8 87.28 12.23 97.1 12.15 106.47 C12.13 107.83 12.11 109.18 12.09 110.54 C12.04 114.07 12 117.61 11.96 121.15 C11.92 124.77 11.87 128.39 11.82 132.01 C11.72 139.09 11.64 146.17 11.56 153.25 C6.33 154.99 2.28 155.31 -3.24 154.81 C-4.4 154.71 -5.56 154.61 -6.76 154.5 C-7.65 154.42 -8.53 154.34 -9.44 154.25 C-9.64 134.47 -9.82 114.68 -9.98 94.9 C-10.06 85.71 -10.14 76.53 -10.24 67.34 C-10.32 59.34 -10.39 51.34 -10.45 43.33 C-10.48 39.09 -10.52 34.85 -10.57 30.61 C-10.62 26.62 -10.65 22.64 -10.67 18.65 C-10.68 17.18 -10.7 15.72 -10.72 14.25 C-10.75 12.25 -10.75 10.26 -10.76 8.26 C-10.77 7.14 -10.78 6.02 -10.79 4.87 C-10.62 3.57 -10.62 3.57 -10.44 2.25 C-6.83 -0.16 -4.17 -0.05 0 0 Z M-5.44 1.25 C-5.44 1.58 -5.44 1.91 -5.44 2.25 C-1.15 2.25 3.14 2.25 7.56 2.25 C7.56 1.92 7.56 1.59 7.56 1.25 C3.27 1.25 -1.02 1.25 -5.44 1.25 Z M11.56 59.25 C11.56 59.91 11.56 60.57 11.56 61.25 C12.22 60.92 12.88 60.59 13.56 60.25 C12.9 59.92 12.24 59.59 11.56 59.25 Z " fill="#004580" transform="translate(682.4375,36.75)"/>
<path d="M0 0 C1.09 -0.06 2.19 -0.12 3.31 -0.19 C16.09 -0.28 26.33 6.46 35.31 14.88 C47.9 28.09 49.48 45.6 49.28 62.94 C49.06 70.15 47.76 76.29 45 83 C44.44 84.38 44.44 84.38 43.87 85.78 C38.32 97.98 28.9 105.47 16.56 110.44 C2.98 114.52 -12.94 113.23 -25.47 106.71 C-32.3 102.51 -38.55 96.67 -43 90 C-43 89.01 -43 88.02 -43 87 C-43.66 87 -44.32 87 -45 87 C-45.84 84.77 -46.67 82.55 -47.5 80.31 C-47.74 79.69 -47.98 79.06 -48.22 78.42 C-49.54 74.82 -50.29 71.83 -50 68 C-50.33 68 -50.66 68 -51 68 C-51.77 48.97 -51.22 31.8 -39 16 C-37.68 15.31 -36.35 14.63 -35 14 C-34.67 13.01 -34.34 12.02 -34 11 C-31.77 9.53 -29.59 8.21 -27.25 6.94 C-26.63 6.59 -26.01 6.23 -25.37 5.87 C-19.66 2.69 -14.77 0.79 -8.31 -0.19 C-7.17 -0.37 -6.04 -0.55 -4.86 -0.73 C-2 -1 -2 -1 0 0 Z M-19.76 25.95 C-29.16 38.6 -28.94 55.71 -26.86 70.67 C-25.52 78.41 -22.1 85.89 -16 91 C-7.79 94.52 1.34 94.9 10 93 C17.26 89.54 21.3 83.41 24 76 C26.01 67.88 26.21 59.7 26.25 51.38 C26.26 50.4 26.27 49.43 26.28 48.43 C26.27 47.51 26.27 46.59 26.27 45.65 C26.26 44.83 26.26 44 26.26 43.15 C26.13 40.7 26.13 40.7 24 38 C23.18 35.36 22.62 32.7 22 30 C21.34 30 20.68 30 20 30 C19.77 29.26 19.55 28.52 19.31 27.75 C17.22 23.37 13.48 20.72 9 19 C-1.6 17.64 -12.21 17.58 -19.76 25.95 Z M-50 44 C-49 47 -49 47 -49 47 Z M26 48 C27 50 27 50 27 50 Z M26 63 C27 65 27 65 27 65 Z " fill="#004580" transform="translate(1036,81)"/>
<path d="M0 0 C2.88 2.44 2.88 2.44 5 5 C5.43 5.49 5.86 5.98 6.3 6.48 C14.2 16.27 13.41 28.8 13.29 40.7 C13.29 42.39 13.28 44.08 13.28 45.76 C13.27 50.17 13.24 54.58 13.21 58.99 C13.18 63.5 13.16 68.01 13.15 72.52 C13.11 81.35 13.06 90.17 13 99 C-14.15 104.88 -14.15 104.88 -25.69 104.56 C-26.77 104.55 -27.85 104.53 -28.96 104.51 C-41.88 104.14 -53.37 101.46 -62.88 92.16 C-67 87.63 -67 87.63 -67 84 C-67.66 84 -68.32 84 -69 84 C-70.83 79.33 -71.35 75.09 -71.31 70.12 C-71.31 69.42 -71.31 68.71 -71.3 67.98 C-71.19 62.58 -70.4 58.8 -68 54 C-67.59 52.97 -67.18 51.94 -66.75 50.88 C-61.01 41.45 -49.77 36.7 -39.44 34.12 C-29.96 32.33 -18.41 31.37 -9 34 C-9.28 31.94 -9.58 29.87 -9.88 27.81 C-10.04 26.66 -10.2 25.52 -10.37 24.33 C-10.95 21.24 -11.5 18.76 -13 16 C-22.81 9.45 -34.34 10.45 -45.38 12.44 C-46.56 12.64 -46.56 12.64 -47.78 12.85 C-50.94 13.39 -53.95 13.98 -57 15 C-57.66 14.34 -58.32 13.68 -59 13 C-59 12.01 -59 11.02 -59 10 C-59.66 10 -60.32 10 -61 10 C-62.45 5.46 -63.24 1.82 -63 -3 C-45.31 -13.3 -16.61 -10.04 0 0 Z M-62 -2 C-62 -0.35 -62 1.3 -62 3 C-61.67 3 -61.34 3 -61 3 C-61 1.35 -61 -0.3 -61 -2 C-61.33 -2 -61.66 -2 -62 -2 Z M-46 58 C-49.03 62.77 -49.94 68.46 -49 74 C-47.63 78.55 -46.34 81.18 -42.21 83.71 C-36.49 85.94 -30.22 85.35 -24.19 85.25 C-22.95 85.24 -21.71 85.24 -20.43 85.23 C-14.54 85.48 -14.54 85.48 -9 84 C-9 73.44 -9 62.88 -9 52 C-21.76 50.04 -35.72 48.27 -46 58 Z M-34 86 C-34 86.33 -34 86.66 -34 87 C-28.39 87 -22.78 87 -17 87 C-17 86.67 -17 86.34 -17 86 C-22.61 86 -28.22 86 -34 86 Z " fill="#004580" transform="translate(511,89)"/>
<path d="M0 0 C7.98 7.31 11.67 16.97 12.17 27.66 C12.26 32.13 12.23 36.6 12.2 41.07 C12.19 42.71 12.19 44.36 12.19 46.01 C12.18 50.31 12.16 54.62 12.14 58.92 C12.12 63.33 12.11 67.73 12.1 72.13 C12.08 80.76 12.04 89.38 12 98 C9.79 98.48 7.59 98.95 5.38 99.43 C4.15 99.69 2.92 99.96 1.66 100.23 C-7.75 102.21 -16.75 103.39 -26.38 103.38 C-27.46 103.37 -28.55 103.37 -29.68 103.37 C-38.04 103.24 -45.22 102.27 -53 99 C-53.7 98.71 -54.39 98.42 -55.11 98.12 C-61.95 94.74 -68.4 88.18 -71 81 C-71.56 78.55 -71.84 76.49 -72 74 C-72.1 72.99 -72.2 71.98 -72.3 70.93 C-72.87 61 -70.51 54.08 -65 46 C-62.57 43.39 -60.12 41.69 -57 40 C-56.26 39.55 -55.52 39.11 -54.76 38.65 C-41.98 31.49 -24.29 29.49 -10 33 C-10.37 30.6 -10.77 28.21 -11.19 25.81 C-11.29 25.14 -11.39 24.47 -11.49 23.77 C-12.41 18.72 -13.97 16.15 -18 13 C-30.35 7.52 -45.53 9.84 -58 14 C-58.82 12.9 -59.63 11.79 -60.44 10.69 C-60.89 10.07 -61.34 9.46 -61.81 8.82 C-64.31 5 -64.48 1.45 -64 -3 C-60.23 -5.96 -56.14 -6.89 -51.5 -7.69 C-50.77 -7.81 -50.04 -7.94 -49.29 -8.07 C-32.09 -10.72 -14.44 -10.81 0 0 Z M-10 25 C-9 28 -9 28 -9 28 Z M-47.81 58.06 C-50.83 62.99 -50.45 68.42 -50 74 C-48.48 78.25 -46.89 80.69 -43 83 C-39.67 84.11 -37.16 84.13 -33.65 84.13 C-32.41 84.13 -31.16 84.14 -29.88 84.14 C-28.58 84.13 -27.28 84.13 -25.94 84.12 C-23.98 84.13 -23.98 84.13 -21.98 84.14 C-20.74 84.14 -19.5 84.13 -18.21 84.13 C-16.5 84.13 -16.5 84.13 -14.75 84.13 C-12.04 84.19 -12.04 84.19 -10 83 C-10 72.44 -10 61.88 -10 51 C-23.11 48.62 -38.05 46.96 -47.81 58.06 Z M-35 85 C-35 85.33 -35 85.66 -35 86 C-29.39 86 -23.78 86 -18 86 C-18 85.67 -18 85.34 -18 85 C-23.61 85 -29.22 85 -35 85 Z " fill="#004581" transform="translate(857,90)"/>
<path d="M0 0 C1.01 -0.04 2.02 -0.08 3.06 -0.12 C12.82 0.18 20.6 4.92 27.32 11.8 C33.36 19.71 35.16 29.13 35.11 38.82 C35.11 39.59 35.11 40.36 35.11 41.16 C35.11 43.69 35.11 46.23 35.1 48.77 C35.1 50.53 35.09 52.3 35.09 54.06 C35.09 58.7 35.08 63.33 35.07 67.96 C35.06 72.7 35.05 77.43 35.05 82.16 C35.04 91.44 35.02 100.72 35 110 C32.76 110.19 30.51 110.37 28.27 110.55 C27.02 110.65 25.77 110.76 24.48 110.86 C20.38 111.03 17.73 110.65 14 109 C12.62 106.23 12.89 104.01 12.9 100.91 C12.91 99.64 12.91 98.36 12.91 97.04 C12.92 96.36 12.92 95.67 12.92 94.97 C12.94 92.83 12.94 90.69 12.95 88.55 C12.96 84.01 12.98 79.48 13 74.94 C13.02 69.68 13.04 64.42 13.06 59.16 C13.06 57.04 13.07 54.93 13.09 52.82 C13.09 51.55 13.09 50.27 13.1 48.96 C13.11 47.26 13.11 47.26 13.11 45.54 C13.29 43.06 13.29 43.06 12 42 C12.08 41.05 12.16 40.1 12.25 39.12 C12.31 33.56 9.98 28.6 7 24 C4.6 22.09 3.1 21.76 0 21 C-0.93 20.71 -1.86 20.42 -2.81 20.12 C-7.59 19.94 -11.56 21.32 -16 23 C-16.66 23.24 -17.31 23.49 -17.99 23.74 C-23.79 26.44 -26.46 31.34 -29 37 C-31.73 46.37 -32.46 55.56 -32.51 65.27 C-32.53 66.56 -32.55 67.85 -32.57 69.18 C-32.61 72.56 -32.64 75.93 -32.67 79.31 C-32.7 82.78 -32.75 86.24 -32.79 89.71 C-32.88 96.47 -32.94 103.24 -33 110 C-35.07 110.19 -37.13 110.37 -39.2 110.55 C-40.35 110.65 -41.51 110.76 -42.69 110.86 C-46.96 111.04 -50 110.46 -54 109 C-55.15 106.7 -55.13 105.42 -55.13 102.86 C-55.14 102 -55.14 101.13 -55.15 100.24 C-55.15 99.28 -55.15 98.33 -55.15 97.35 C-55.15 96.35 -55.15 95.35 -55.16 94.31 C-55.16 90.99 -55.17 87.67 -55.17 84.34 C-55.17 82.04 -55.17 79.74 -55.18 77.44 C-55.18 72.61 -55.19 67.78 -55.19 62.95 C-55.19 56.75 -55.2 50.55 -55.22 44.35 C-55.23 39.6 -55.23 34.84 -55.23 30.09 C-55.23 27.8 -55.23 25.51 -55.24 23.23 C-55.25 20.03 -55.25 16.84 -55.24 13.65 C-55.25 12.7 -55.25 11.74 -55.26 10.76 C-55.26 9.9 -55.25 9.03 -55.25 8.14 C-55.25 7.38 -55.25 6.63 -55.25 5.85 C-55 4 -55 4 -53 2 C-50.47 1.77 -48.09 1.68 -45.56 1.69 C-44.54 1.66 -44.54 1.66 -43.5 1.64 C-40.67 1.64 -38.52 1.69 -36.07 3.16 C-34.6 5.69 -34.48 7.79 -34.31 10.69 C-34.21 12.18 -34.21 12.18 -34.11 13.7 C-34.08 14.46 -34.04 15.22 -34 16 C-29.41 13.42 -29.41 13.42 -27 9 C-21.17 4.56 -7.48 -3.74 0 0 Z " fill="#004580" transform="translate(608,81)"/>
<path d="M0 0 C1.59 2.53 1.27 4.21 0.93 7.15 C0.83 8.08 0.73 9.02 0.63 9.98 C0.11 12.79 -0.74 15.17 -1.89 17.77 C-3.03 17.75 -4.18 17.73 -5.36 17.7 C-6.89 17.68 -8.42 17.67 -9.95 17.65 C-10.7 17.63 -11.45 17.61 -12.23 17.6 C-18.16 17.55 -23.74 17.69 -28.2 22.02 C-31.39 27.22 -32.17 32.12 -32.51 38.15 C-32.59 39.39 -32.66 40.64 -32.74 41.92 C-32.79 42.86 -32.84 43.8 -32.89 44.77 C-32.18 44.76 -31.46 44.75 -30.73 44.74 C-27.51 44.7 -24.29 44.67 -21.07 44.65 C-19.95 44.63 -18.84 44.61 -17.68 44.6 C-16.61 44.59 -15.54 44.58 -14.43 44.58 C-12.95 44.56 -12.95 44.56 -11.43 44.55 C-8.89 44.77 -8.89 44.77 -5.89 46.77 C-5.66 49.58 -5.61 52.1 -5.7 54.9 C-5.76 57.5 -5.82 60.1 -5.89 62.77 C-14.8 62.77 -23.71 62.77 -32.89 62.77 C-32.88 65.46 -32.88 68.16 -32.87 70.93 C-32.85 79.8 -32.84 88.67 -32.83 97.53 C-32.83 102.91 -32.82 108.29 -32.81 113.67 C-32.8 118.86 -32.79 124.05 -32.79 129.23 C-32.79 131.22 -32.79 133.2 -32.78 135.19 C-32.77 137.95 -32.77 140.72 -32.77 143.49 C-32.77 144.32 -32.77 145.15 -32.76 146 C-32.77 151.66 -32.77 151.66 -33.89 152.77 C-41.21 153.84 -47.88 154.33 -54.89 151.77 C-56.48 148.59 -56.02 145.15 -56 141.65 C-56 140.81 -56 139.97 -56 139.11 C-56 136.33 -55.99 133.55 -55.98 130.77 C-55.98 128.84 -55.98 126.92 -55.98 124.99 C-55.98 119.92 -55.97 114.84 -55.96 109.77 C-55.95 104.6 -55.94 99.42 -55.94 94.25 C-55.92 84.09 -55.91 73.93 -55.89 63.77 C-61.17 63.44 -66.45 63.11 -71.89 62.77 C-71.89 61.78 -71.89 60.79 -71.89 59.77 C-72.55 59.77 -73.21 59.77 -73.89 59.77 C-73.97 58.02 -74.03 56.27 -74.07 54.52 C-74.11 53.55 -74.14 52.57 -74.18 51.57 C-73.83 48.23 -73.47 46.95 -70.89 44.77 C-68.17 44.48 -65.89 44.39 -63.2 44.52 C-62.5 44.54 -61.8 44.56 -61.07 44.58 C-59.34 44.63 -57.61 44.7 -55.89 44.77 C-55.93 43.93 -55.98 43.08 -56.03 42.2 C-56.4 30.17 -54.6 18.77 -47.06 8.96 C-37.2 -0.97 -12.95 -8.42 0 0 Z M-54.89 30.77 C-53.89 34.77 -53.89 34.77 -53.89 34.77 Z " fill="#004681" transform="translate(1171.88671875,38.2265625)"/>
<path d="M0 0 C1.23 0.01 1.23 0.01 2.49 0.01 C12.19 0.18 21.16 1.7 29.81 6.31 C29.42 12.27 28.44 16.94 25.81 22.31 C20.96 21.68 16.28 20.77 11.5 19.69 C2.25 17.75 -5.64 18.11 -14.19 22.31 C-16.52 24.71 -17.16 26.19 -17.24 29.53 C-16.96 33.99 -16.96 33.99 -15.05 37.93 C-12.41 39.89 -9.67 40.76 -6.56 41.81 C-5.93 42.03 -5.3 42.25 -4.66 42.47 C-2 43.39 0.66 44.27 3.35 45.09 C14.76 48.59 25.48 54.57 31.31 65.38 C34.33 73.17 34.05 82.75 31.44 90.62 C27.4 99.2 19.66 106.07 10.81 109.31 C3.2 111.84 -3.81 112.83 -11.81 112.75 C-13.37 112.74 -13.37 112.74 -14.95 112.73 C-23.93 112.56 -32.75 111.52 -41.19 108.31 C-43.19 105.31 -43.19 105.31 -43.06 102.69 C-41.94 98.37 -40.52 94.14 -38.19 90.31 C-35.19 89.31 -35.19 89.31 -31.79 90.73 C-26.16 92.98 -20.6 92.75 -14.62 92.69 C-13.53 92.7 -12.43 92.71 -11.3 92.72 C-3.93 92.7 1.09 91.96 7.19 87.62 C9.96 83.69 10.2 79.77 9.48 75.16 C8.64 72.23 7.78 69.98 5.23 68.21 C0.61 66.04 -4.05 64.19 -8.85 62.47 C-17.43 59.4 -25.24 56.39 -32.19 50.31 C-33.08 49.59 -33.08 49.59 -34 48.86 C-39.23 44.28 -40.82 38.64 -41.56 31.88 C-40.69 23.59 -38.22 15.3 -32.19 9.31 C-22.1 2.83 -11.92 -0.08 0 0 Z M-40.19 31.31 C-39.19 35.31 -39.19 35.31 -39.19 35.31 Z M-17.19 94.31 C-17.19 94.64 -17.19 94.97 -17.19 95.31 C-13.89 95.31 -10.59 95.31 -7.19 95.31 C-7.19 94.98 -7.19 94.65 -7.19 94.31 C-10.49 94.31 -13.79 94.31 -17.19 94.31 Z " fill="#004580" transform="translate(934.1875,80.6875)"/>
<path d="M0 0 C0.99 0.33 1.98 0.66 3 1 C3 8.92 3 16.84 3 25 C10.72 24.88 10.72 24.88 18.44 24.73 C19.4 24.72 20.37 24.71 21.36 24.71 C22.34 24.69 23.33 24.68 24.34 24.66 C27.45 25.06 28.8 25.8 31 28 C31.43 31.03 31.43 31.03 31.31 34.5 C31.28 36.22 31.28 36.22 31.24 37.97 C31 41 31 41 30 44 C21.42 44 12.84 44 4 44 C3.98 51.65 3.96 59.3 3.95 66.95 C3.94 69.55 3.93 72.15 3.92 74.75 C3.91 78.5 3.91 82.24 3.9 85.99 C3.9 87.14 3.89 88.3 3.89 89.48 C3.37 101.69 3.37 101.69 7 113 C10.15 115.1 10.77 115.23 14.34 115.12 C15.59 115.1 15.59 115.1 16.87 115.08 C17.74 115.05 18.61 115.03 19.5 115 C21.22 114.95 22.94 114.91 24.66 114.88 C25.42 114.85 26.18 114.83 26.96 114.8 C29 115 29 115 32 117 C33.63 121.74 33.09 127.05 33 132 C31.67 132.34 30.34 132.68 29 133 C28.26 133.18 27.52 133.36 26.76 133.55 C16.35 135.26 2.66 135.57 -6.3 129.42 C-8.34 127.71 -10.18 125.93 -12 124 C-12.76 123.24 -13.53 122.47 -14.31 121.69 C-19.7 113.11 -19.41 103.61 -19.29 93.8 C-19.29 92.36 -19.28 90.92 -19.28 89.48 C-19.27 85.71 -19.24 81.95 -19.21 78.18 C-19.18 74.33 -19.16 70.47 -19.15 66.62 C-19.11 59.08 -19.06 51.54 -19 44 C-19.92 44.01 -20.83 44.02 -21.77 44.04 C-23.56 44.05 -23.56 44.05 -25.38 44.06 C-26.56 44.07 -27.74 44.09 -28.96 44.1 C-32 44 -32 44 -34 43 C-34.62 40.44 -34.62 40.44 -35 38 C-34.36 37.75 -33.72 37.5 -33.06 37.25 C-30.83 36.22 -30.83 36.22 -30.5 34.12 C-30.34 33.42 -30.17 32.72 -30 32 C-28.71 30.62 -27.37 29.29 -26 28 C-25.36 27.2 -24.72 26.39 -24.06 25.56 C-21.87 22.84 -19.47 20.47 -17 18 C-16.28 17.09 -15.56 16.19 -14.81 15.25 C-13 13 -13 13 -11 12 C-10.63 11.3 -10.26 10.6 -9.88 9.88 C-7.29 5.91 -3.99 2.59 0 0 Z " fill="#004580" transform="translate(1208,58)"/>
<path d="M0 0 C1.3 -0.01 2.6 -0.01 3.94 -0.02 C7.11 0.22 8.81 0.57 11.44 2.25 C10.84 5.13 9.99 7.23 8.37 9.68 C7.94 10.33 7.52 10.98 7.07 11.65 C6.61 12.35 6.14 13.05 5.66 13.77 C5.17 14.51 4.69 15.24 4.19 16 C2.63 18.36 1.07 20.71 -0.5 23.06 C-1.52 24.6 -2.54 26.14 -3.56 27.69 C-6.55 32.21 -9.55 36.73 -12.56 41.25 C-13.26 42.3 -13.26 42.3 -13.98 43.38 C-17.87 49.22 -21.76 55.07 -25.69 60.89 C-26.11 61.51 -26.52 62.12 -26.95 62.75 C-27.77 63.97 -28.59 65.18 -29.41 66.39 C-31.16 69 -32.56 71.25 -33.56 74.25 C-32.45 76.51 -32.45 76.51 -30.62 79 C-29.89 80.07 -29.15 81.14 -28.38 82.24 C-27.94 82.86 -27.51 83.49 -27.06 84.13 C-25.36 86.54 -23.67 88.96 -21.99 91.38 C-19.97 94.3 -17.94 97.21 -15.91 100.12 C-8.72 110.44 -1.62 120.83 5.44 131.25 C6.34 132.57 6.34 132.57 7.26 133.93 C8.97 136.45 10.67 138.97 12.38 141.5 C12.89 142.26 13.4 143.01 13.93 143.79 C17.44 149.02 17.44 149.02 17.44 151.25 C12.43 151.74 7.46 152.06 2.44 152.25 C1.5 152.31 0.57 152.37 -0.4 152.43 C-4.04 152.25 -6.37 151.55 -8.89 148.81 C-11.97 144.86 -14.6 140.63 -17.23 136.37 C-19.17 133.29 -21.29 130.37 -23.44 127.44 C-27.4 121.94 -31.25 116.36 -35.06 110.75 C-38.95 105.05 -42.86 99.36 -46.88 93.75 C-47.27 93.19 -47.67 92.63 -48.08 92.06 C-50.01 89.36 -51.98 86.71 -53.99 84.09 C-54.74 83.11 -55.48 82.13 -56.25 81.12 C-56.91 80.28 -57.58 79.43 -58.26 78.55 C-59.56 76.25 -59.56 76.25 -59.45 74.27 C-58.34 71.75 -57.05 69.42 -55.62 67.06 C-54.84 65.74 -54.84 65.74 -54.04 64.39 C-52.56 62.25 -52.56 62.25 -50.56 61.25 C-49.78 59.97 -49.06 58.65 -48.38 57.31 C-45.51 51.99 -42.08 47.16 -38.56 42.25 C-36.63 39.49 -36.63 39.49 -35.62 37.35 C-34.43 35 -33.05 32.87 -31.59 30.69 C-31 29.81 -30.42 28.94 -29.81 28.04 C-29.19 27.12 -28.58 26.2 -27.94 25.25 C-22.91 17.81 -22.91 17.81 -18.04 10.27 C-17.03 8.68 -17.03 8.68 -16 7.06 C-15.44 6.16 -14.88 5.26 -14.31 4.33 C-10.44 -0.28 -5.7 -0.02 0 0 Z " fill="#004580" transform="translate(411.5625,39.75)"/>
<path d="M0 0 C1.81 0.01 1.81 0.01 3.66 0.01 C6.94 0.31 6.94 0.31 10.94 2.31 C10.94 51.15 10.94 99.99 10.94 150.31 C2.6 152.7 -2.94 152.83 -11.06 150.31 C-12.4 147.64 -12.2 145.58 -12.22 142.59 C-12.23 141.37 -12.23 140.15 -12.24 138.9 C-12.25 137.54 -12.25 136.18 -12.26 134.82 C-12.26 133.4 -12.27 131.97 -12.28 130.55 C-12.31 125.87 -12.32 121.19 -12.34 116.5 C-12.34 114.89 -12.35 113.28 -12.35 111.67 C-12.37 104.98 -12.39 98.28 -12.4 91.59 C-12.42 81.98 -12.45 72.38 -12.51 62.77 C-12.55 56.02 -12.57 49.27 -12.57 42.52 C-12.58 38.49 -12.59 34.46 -12.62 30.42 C-12.65 26.63 -12.66 22.84 -12.65 19.04 C-12.65 17.65 -12.65 16.26 -12.67 14.86 C-12.69 12.96 -12.68 11.06 -12.67 9.16 C-12.68 7.57 -12.68 7.57 -12.68 5.94 C-12.06 3.31 -12.06 3.31 -9.74 1.47 C-6.34 0 -3.69 -0.05 0 0 Z " fill="#004681" transform="translate(336.0625,39.6875)"/>
<path d="M0 0 C3.42 0.78 5.86 1.97 8.84 3.84 C9.76 4.41 10.68 4.98 11.62 5.56 C12.57 6.16 13.52 6.76 14.5 7.38 C15.45 7.97 16.4 8.56 17.38 9.16 C19.93 10.76 22.48 12.35 25 14 C25.7 14.36 26.39 14.72 27.11 15.09 C30.01 18.02 29.6 21.23 29.6 25.14 C29.62 26.38 29.62 26.38 29.64 27.65 C29.69 30.4 29.7 33.15 29.71 35.89 C29.72 37.8 29.74 39.71 29.75 41.62 C29.78 45.63 29.79 49.63 29.8 53.64 C29.8 58.77 29.87 63.9 29.95 69.02 C30 72.97 30.01 76.91 30.01 80.86 C30.02 82.75 30.04 84.64 30.07 86.53 C30.33 101.31 30.33 101.31 27.09 105.43 C24.76 107.01 22.62 108 20 109 C18.48 109.9 16.96 110.82 15.47 111.77 C14 112.64 12.53 113.51 11.06 114.38 C10.31 114.82 9.56 115.27 8.78 115.74 C7.7 116.37 7.7 116.37 6.6 117.02 C5.95 117.4 5.31 117.78 4.64 118.18 C3 119 3 119 1 119 C0.03 116.09 -0.12 114.26 -0.12 111.24 C-0.12 110.26 -0.12 109.28 -0.12 108.27 C-0.12 107.19 -0.12 106.12 -0.11 105.01 C-0.11 103.88 -0.11 102.75 -0.11 101.58 C-0.11 97.83 -0.11 94.08 -0.1 90.33 C-0.1 87.74 -0.09 85.14 -0.09 82.54 C-0.09 76.4 -0.08 70.26 -0.07 64.12 C-0.06 57.13 -0.06 50.14 -0.05 43.15 C-0.04 28.76 -0.02 14.38 0 0 Z " fill="#004581" transform="translate(246,72)"/>
<path d="M0 0 C0.88 0.5 1.76 1.01 2.66 1.53 C3.68 2.1 4.69 2.67 5.73 3.26 C6.92 3.99 8.11 4.72 9.29 5.46 C10.02 5.92 10.75 6.38 11.5 6.85 C16.47 9.99 21.39 13.2 26.29 16.46 C24.06 18.91 21.84 20.41 18.92 21.96 C18.05 22.43 17.17 22.9 16.27 23.38 C15.33 23.89 14.39 24.39 13.41 24.9 C5.88 28.96 -1.61 33.07 -9.02 37.34 C-16.72 41.77 -24.46 46.13 -32.21 50.46 C-41.07 55.41 -49.89 60.41 -58.7 65.46 C-64.66 68.88 -70.65 72.23 -76.71 75.46 C-78.93 72.13 -78.93 71.28 -78.76 67.42 C-78.72 66.43 -78.67 65.44 -78.63 64.42 C-78.57 63.38 -78.52 62.34 -78.46 61.28 C-78.42 60.26 -78.38 59.24 -78.34 58.2 C-78.2 55.28 -77.98 52.38 -77.71 49.46 C-77.67 48.71 -77.63 47.95 -77.58 47.16 C-77.16 43.93 -76.23 41.89 -73.71 39.83 C-70.98 38.14 -68.2 36.66 -65.34 35.21 C-63.22 34.09 -61.11 32.96 -59 31.82 C-57.94 31.26 -56.88 30.7 -55.78 30.12 C-51.33 27.72 -47.02 25.11 -42.71 22.46 C-32.64 16.35 -22.41 10.53 -12.1 4.83 C-10.6 3.97 -9.12 3.08 -7.68 2.13 C-3.37 -0.67 -3.37 -0.67 0 0 Z M-76.71 49.46 C-75.71 52.46 -75.71 52.46 -75.71 52.46 Z M-77.71 63.46 C-77.71 65.77 -77.71 68.08 -77.71 70.46 C-77.38 70.46 -77.05 70.46 -76.71 70.46 C-76.71 68.15 -76.71 65.84 -76.71 63.46 C-77.04 63.46 -77.37 63.46 -77.71 63.46 Z " fill="#004580" transform="translate(111.7109375,46.53515625)"/>
<path d="M0 0 C4.79 0.81 8.34 2.74 12.44 5.25 C13.97 6.17 15.49 7.08 17.02 8 C18.24 8.73 18.24 8.73 19.48 9.48 C23.82 12.1 28.19 14.67 32.56 17.25 C33.48 17.8 34.41 18.34 35.36 18.9 C42.18 22.94 49.02 26.94 55.88 30.94 C56.86 31.51 57.85 32.09 58.86 32.68 C64.08 35.72 69.31 38.76 74.54 41.79 C75.61 42.41 76.68 43.03 77.78 43.67 C79.82 44.85 81.86 46.03 83.9 47.21 C89.74 50.6 95.42 54.17 101 58 C99.16 63.53 92.95 65.71 88.12 68.56 C87.03 69.27 85.93 69.97 84.8 70.7 C76.74 75.42 76.74 75.42 72.17 74.32 C69.26 72.74 66.68 70.94 64 69 C61.93 67.79 59.86 66.61 57.77 65.45 C55.59 64.2 53.42 62.94 51.25 61.69 C50.68 61.36 50.11 61.03 49.52 60.69 C44.25 57.64 38.98 54.6 33.75 51.48 C33.15 51.13 32.56 50.77 31.94 50.41 C30.82 49.72 29.7 49.02 28.59 48.3 C24.93 45.97 21.29 44.28 17.24 42.69 C5.03 37.43 5.03 37.43 1 32 C-1.98 21.7 -0.99 10.56 0 0 Z " fill="#00447F" transform="translate(80,222)"/>
<path d="M0 0 C1.24 -0 1.24 -0 2.51 -0.01 C3.38 -0 4.24 0.01 5.14 0.02 C5.99 0.01 6.85 0 7.73 -0.01 C12.34 0.01 15.53 0.49 19.82 2.27 C20.81 1.61 21.8 0.95 22.82 0.27 C29.29 -0.69 29.29 -0.69 32.53 1.33 C36.52 5.36 37.25 8.62 37.45 14.26 C37.41 16.89 37.35 19.51 37.26 22.14 C37.24 23.5 37.22 24.85 37.21 26.21 C37.02 36.07 37.02 36.07 35.82 37.27 C32.39 37.45 32.39 37.45 28.82 37.27 C26.11 34.55 26.52 32.96 26.41 29.16 C26.35 27.35 26.35 27.35 26.29 25.49 C26.26 24.22 26.23 22.95 26.2 21.64 C26.14 19.72 26.14 19.72 26.08 17.77 C25.99 14.6 25.9 11.43 25.82 8.27 C23.84 9.26 23.84 9.26 21.82 10.27 C21.49 19.18 21.16 28.09 20.82 37.27 C17.85 37.27 14.88 37.27 11.82 37.27 C9.5 33.77 9.59 32.41 9.63 28.29 C9.64 26.54 9.64 26.54 9.65 24.76 C9.67 23.54 9.68 22.33 9.7 21.08 C9.71 19.85 9.72 18.63 9.73 17.36 C9.75 14.33 9.78 11.3 9.82 8.27 C8.17 8.6 6.52 8.93 4.82 9.27 C4.49 18.51 4.16 27.75 3.82 37.27 C1.18 37.27 -1.46 37.27 -4.18 37.27 C-6.67 33.52 -6.43 31.51 -6.44 27.04 C-6.44 26.34 -6.45 25.64 -6.45 24.92 C-6.45 23.44 -6.44 21.96 -6.44 20.48 C-6.43 18.21 -6.44 15.94 -6.45 13.67 C-6.45 12.23 -6.45 10.79 -6.44 9.36 C-6.44 8.04 -6.44 6.73 -6.43 5.38 C-6.04 0.62 -4.39 0.01 0 0 Z " fill="#004682" transform="translate(471.17578125,222.734375)"/>
<path d="M0 0 C3.06 0.25 3.06 0.25 6.06 2.25 C6.42 4.31 6.42 4.31 6.4 6.88 C6.4 7.84 6.4 8.8 6.4 9.79 C6.39 10.83 6.37 11.87 6.36 12.95 C6.35 14.01 6.35 15.07 6.34 16.17 C6.33 19.57 6.29 22.97 6.25 26.38 C6.23 28.68 6.22 30.98 6.21 33.29 C6.18 38.94 6.13 44.6 6.06 50.25 C2.4 50.25 -1.27 50.25 -4.94 50.25 C-5.93 50.75 -5.93 50.75 -6.94 51.25 C-10.16 51.62 -12.76 51.92 -15.66 50.27 C-20.01 46.79 -21.8 43.55 -22.94 38.25 C-23.56 30.65 -23.37 22.95 -18.72 16.58 C-15.71 13.59 -13.13 12.96 -9.06 12.94 C-7.69 13.02 -6.31 13.11 -4.94 13.25 C-4.96 12.48 -4.98 11.71 -5.01 10.91 C-5.03 9.91 -5.04 8.91 -5.06 7.88 C-5.09 6.88 -5.11 5.88 -5.13 4.85 C-4.84 0.98 -3.8 0.32 0 0 Z M-3.94 2.25 C-4.27 6.54 -4.6 10.83 -4.94 15.25 C-4.28 15.25 -3.62 15.25 -2.94 15.25 C-2.94 10.96 -2.94 6.67 -2.94 2.25 C-3.27 2.25 -3.6 2.25 -3.94 2.25 Z M-10.94 22.25 C-12.13 25.82 -12.12 29.1 -12.12 32.81 C-12.14 33.5 -12.15 34.18 -12.16 34.89 C-12.17 36.68 -12.06 38.47 -11.94 40.25 C-11.28 40.91 -10.62 41.57 -9.94 42.25 C-8.29 41.92 -6.64 41.59 -4.94 41.25 C-4.94 34.98 -4.94 28.71 -4.94 22.25 C-8.68 20.85 -8.68 20.85 -10.94 22.25 Z M-3.94 25.25 C-2.94 27.25 -2.94 27.25 -2.94 27.25 Z M-21.94 27.25 C-20.94 30.25 -20.94 30.25 -20.94 30.25 Z M-3.94 28.25 C-3.94 30.56 -3.94 32.87 -3.94 35.25 C-3.61 35.25 -3.28 35.25 -2.94 35.25 C-2.94 32.94 -2.94 30.63 -2.94 28.25 C-3.27 28.25 -3.6 28.25 -3.94 28.25 Z M-21.94 34.25 C-20.94 37.25 -20.94 37.25 -20.94 37.25 Z M-3.94 36.25 C-2.94 39.25 -2.94 39.25 -2.94 39.25 Z " fill="#004783" transform="translate(1155.9375,209.75)"/>
<path d="M0 0 C3 0.19 3 0.19 5 1.19 C5.41 3.91 5.41 3.91 5.62 7.25 C5.7 8.35 5.77 9.46 5.85 10.6 C5.9 11.45 5.95 12.31 6 13.19 C6.98 13.07 6.98 13.07 7.98 12.94 C14.98 12.44 14.98 12.44 17.96 14.64 C22.77 20.23 23.2 24.87 23.25 32 C23.27 32.79 23.29 33.59 23.31 34.41 C23.35 40.67 22.18 44.89 17.75 49.56 C14.25 51.63 12.01 51.55 8 51.19 C7.36 51.02 6.72 50.86 6.06 50.69 C2.73 49.88 -0.58 50.13 -4 50.19 C-5.18 47.83 -5.13 46.4 -5.15 43.77 C-5.15 42.86 -5.16 41.94 -5.16 41 C-5.17 40.01 -5.17 39.02 -5.17 38 C-5.17 36.99 -5.17 35.97 -5.18 34.93 C-5.18 32.78 -5.19 30.64 -5.19 28.49 C-5.19 25.2 -5.21 21.91 -5.22 18.62 C-5.23 16.54 -5.23 14.46 -5.23 12.38 C-5.24 11.39 -5.24 10.4 -5.25 9.38 C-5.25 8.46 -5.25 7.55 -5.24 6.61 C-5.24 5.8 -5.25 4.99 -5.25 4.16 C-4.8 0.62 -3.37 0.21 0 0 Z M6.33 22.71 C4.53 26.07 4.64 29.11 4.75 32.81 C4.76 33.49 4.76 34.17 4.77 34.88 C4.79 38.66 4.79 38.66 6 42.19 C7.65 42.19 9.3 42.19 11 42.19 C13.17 38.67 13.27 35.78 13.25 31.69 C13.26 30 13.26 30 13.27 28.28 C13.01 25.34 12.53 23.67 11 21.19 C7.99 20.85 7.99 20.85 6.33 22.71 Z M13 38.19 C14 40.19 14 40.19 14 40.19 Z " fill="#004783" transform="translate(533,209.8125)"/>
<path d="M0 0 C0.85 -0.05 1.7 -0.09 2.58 -0.14 C8.77 -0.25 8.77 -0.25 11.72 1.69 C16.86 6.67 17.89 11.83 18.06 18.88 C17.77 30.02 17.77 30.02 14.33 34.26 C11.41 37.03 9.63 38.34 5.56 38.81 C4.2 38.63 4.2 38.63 2.81 38.44 C1.82 38.44 0.83 38.44 -0.19 38.44 C-0.18 39.14 -0.16 39.83 -0.15 40.55 C-0.14 41.92 -0.14 41.92 -0.12 43.31 C-0.11 44.22 -0.1 45.12 -0.09 46.05 C-0.19 48.44 -0.19 48.44 -1.19 50.44 C-4.56 50.62 -4.56 50.62 -8.19 50.44 C-10.3 47.27 -10.44 46.51 -10.43 42.89 C-10.43 41.97 -10.44 41.06 -10.44 40.11 C-10.43 39.12 -10.43 38.13 -10.42 37.12 C-10.42 36.1 -10.42 35.09 -10.42 34.04 C-10.41 31.9 -10.41 29.76 -10.39 27.61 C-10.38 24.32 -10.37 21.02 -10.37 17.73 C-10.37 15.65 -10.36 13.57 -10.36 11.49 C-10.35 10.5 -10.35 9.51 -10.35 8.49 C-10.35 7.58 -10.34 6.66 -10.33 5.73 C-10.33 4.92 -10.33 4.11 -10.32 3.28 C-9.98 -1.42 -3.61 0.08 0 0 Z M2.81 8.44 C1.82 9.1 0.83 9.76 -0.19 10.44 C-0.81 13.38 -0.81 13.38 -0.94 16.75 C-1.01 17.88 -1.09 19.01 -1.17 20.18 C-1.19 23.12 -0.89 25.59 -0.19 28.44 C1.46 28.77 3.11 29.1 4.81 29.44 C7.34 25.65 7.04 22.63 6.94 18.25 C6.93 17.5 6.92 16.75 6.91 15.98 C6.89 14.13 6.85 12.28 6.81 10.44 C5.49 9.78 4.17 9.12 2.81 8.44 Z M7.81 14.44 C7.81 17.74 7.81 21.04 7.81 24.44 C8.14 24.44 8.47 24.44 8.81 24.44 C8.81 21.14 8.81 17.84 8.81 14.44 C8.48 14.44 8.15 14.44 7.81 14.44 Z " fill="#004682" transform="translate(1012.1875,222.5625)"/>
<path d="M0 0 C6.58 0.58 6.58 0.58 8 2 C8.09 3.93 8.11 5.86 8.1 7.79 C8.09 8.95 8.09 10.12 8.09 11.33 C8.08 12.56 8.07 13.79 8.06 15.06 C8.06 16.3 8.05 17.53 8.05 18.81 C8.04 21.87 8.02 24.94 8 28 C9.65 28 11.3 28 13 28 C13.03 26.83 13.03 26.83 13.06 25.65 C13.16 22.14 13.26 18.63 13.38 15.12 C13.41 13.9 13.44 12.68 13.47 11.42 C13.53 9.67 13.53 9.67 13.59 7.88 C13.62 6.8 13.65 5.73 13.68 4.61 C14 2 14 2 16 0 C20.05 -0.34 21.55 -0.3 25 2 C25.27 4.7 25.35 7.16 25.29 9.85 C25.29 10.63 25.28 11.4 25.28 12.2 C25.26 14.67 25.23 17.15 25.19 19.62 C25.17 21.3 25.16 22.98 25.15 24.66 C25.11 28.77 25.06 32.89 25 37 C21.33 37 17.67 37 14 37 C13.01 37.5 13.01 37.5 12 38 C6.14 38.68 6.14 38.68 3.24 36.95 C1.06 35.16 -0.73 33.54 -2 31 C-2.21 26.86 -2.19 22.72 -2.19 18.57 C-2.19 16.51 -2.21 14.45 -2.22 12.39 C-2.23 10.45 -2.23 10.45 -2.23 8.47 C-2.23 7.28 -2.24 6.09 -2.24 4.86 C-2 2 -2 2 0 0 Z M15 2 C15 9.26 15 16.52 15 24 C15.33 24 15.66 24 16 24 C16 16.74 16 9.48 16 2 C15.67 2 15.34 2 15 2 Z " fill="#004783" transform="translate(563,223)"/>
<path d="M0 0 C3 0.19 3 0.19 5 1.19 C5.33 9.77 5.66 18.35 6 27.19 C8.48 28.18 8.48 28.18 11 29.19 C10.99 28.42 10.98 27.64 10.97 26.85 C10.93 23.36 10.9 19.87 10.88 16.38 C10.86 15.16 10.84 13.95 10.82 12.69 C10.82 11.53 10.81 10.37 10.8 9.17 C10.79 8.09 10.78 7.02 10.77 5.91 C11 3.19 11 3.19 13 0.19 C17.05 -0.24 18.55 -0.11 22 2.19 C22.27 4.88 22.35 7.35 22.29 10.04 C22.29 10.81 22.28 11.59 22.28 12.38 C22.26 14.86 22.23 17.34 22.19 19.81 C22.17 21.49 22.16 23.17 22.15 24.84 C22.11 28.96 22.06 33.07 22 37.19 C18.33 37.19 14.67 37.19 11 37.19 C10.01 37.68 10.01 37.68 9 38.19 C4.92 38.57 2.71 38.63 -0.81 36.44 C-4.76 32.37 -5.25 29.37 -5.27 23.74 C-5.27 22.5 -5.27 21.26 -5.27 19.98 C-5.27 18.69 -5.26 17.39 -5.25 16.06 C-5.26 14.76 -5.27 13.46 -5.27 12.12 C-5.27 10.88 -5.27 9.64 -5.27 8.37 C-5.26 7.23 -5.26 6.09 -5.26 4.92 C-4.88 0.95 -3.96 0.25 0 0 Z M12 3.19 C12 11.11 12 19.03 12 27.19 C12.33 27.19 12.66 27.19 13 27.19 C13 19.27 13 11.35 13 3.19 C12.67 3.19 12.34 3.19 12 3.19 Z " fill="#004783" transform="translate(857,222.8125)"/>
<path d="M0 0 C2.53 2.19 4.5 4 6 7 C6.09 9.25 6.11 11.5 6.1 13.76 C6.1 14.42 6.09 15.08 6.09 15.77 C6.09 17.89 6.08 20.01 6.06 22.12 C6.06 23.56 6.05 25 6.05 26.43 C6.04 29.96 6.02 33.48 6 37 C3.03 37 0.06 37 -3 37 C-4.37 34.26 -4.22 31.96 -4.32 28.9 C-4.36 27.69 -4.4 26.47 -4.44 25.23 C-4.48 23.96 -4.52 22.68 -4.56 21.38 C-4.61 20.1 -4.65 18.82 -4.69 17.5 C-4.8 14.33 -4.9 11.17 -5 8 C-6.65 8.33 -8.3 8.66 -10 9 C-10.33 18.24 -10.66 27.48 -11 37 C-13.64 37 -16.28 37 -19 37 C-21.9 34.1 -21.26 31.96 -21.27 27.91 C-21.27 27.21 -21.27 26.51 -21.27 25.79 C-21.27 24.31 -21.27 22.82 -21.26 21.34 C-21.25 19.07 -21.26 16.81 -21.27 14.54 C-21.27 13.1 -21.27 11.66 -21.27 10.22 C-21.26 8.91 -21.26 7.6 -21.26 6.25 C-21 3 -21 3 -19 0 C-16.47 -0.26 -16.47 -0.26 -13.5 -0.12 C-8.5 0.07 -4.93 -1.35 0 0 Z " fill="#004580" transform="translate(660,223)"/>
<path d="M0 0 C4.33 2.24 6.54 4.92 8.44 9.38 C9.06 13.39 9.21 16.94 9 21 C8 22 8 22 4.4 22.1 C2.91 22.09 1.43 22.08 -0.06 22.06 C-0.82 22.06 -1.58 22.05 -2.36 22.05 C-4.24 22.04 -6.12 22.02 -8 22 C-8 23.65 -8 25.3 -8 27 C-6.02 27.66 -4.04 28.32 -2 29 C-1.67 27.68 -1.34 26.36 -1 25 C2.3 25.33 5.6 25.66 9 26 C7.93 30.97 5.98 33.78 2.05 36.85 C-0.94 38.53 -3.31 38.89 -6.72 38.66 C-11.68 37.22 -15.34 33.43 -18.2 29.25 C-20.53 22.71 -20.2 12.43 -17.31 6.19 C-12.73 -0.12 -7.58 -1.44 0 0 Z M-8 9 C-8.66 12.03 -8.66 12.03 -9 15 C-5.53 14.5 -5.53 14.5 -2 14 C-2 12.02 -2 10.04 -2 8 C-5.78 7.7 -5.78 7.7 -8 9 Z M-18 11 C-17 13 -17 13 -17 13 Z M-1 11 C0 15 0 15 0 15 Z " fill="#004681" transform="translate(690,223)"/>
<path d="M0 0 C4.57 2.56 8.05 5.82 9.5 10.94 C10.74 18.71 10.26 25.76 7 33 C3.48 36.52 1.15 37.92 -3.81 38.25 C-7.68 38.19 -9.92 37.48 -13 35 C-18.35 29.19 -19.28 24.34 -19.13 16.67 C-18.99 13.69 -18.76 10.89 -18 8 C-17.34 7.67 -16.68 7.34 -16 7 C-15.55 6.2 -15.09 5.39 -14.62 4.56 C-11.31 -0.66 -5.75 -1.21 0 0 Z M-6.58 9.2 C-9.55 12.95 -9.18 18.6 -8.83 23.21 C-8.61 24.82 -8.31 26.41 -8 28 C-5.6 28.68 -5.6 28.68 -3 29 C-0.45 26.45 -0.74 24.77 -0.73 21.28 C-0.73 20.55 -0.74 19.82 -0.75 19.06 C-0.74 18.33 -0.73 17.6 -0.73 16.85 C-0.74 13.04 -0.84 11.24 -3 8 C-5.07 7.8 -5.07 7.8 -6.58 9.2 Z M0 15 C0 17.64 0 20.28 0 23 C0.33 23 0.66 23 1 23 C1 20.36 1 17.72 1 15 C0.67 15 0.34 15 0 15 Z " fill="#004681" transform="translate(940,223)"/>
<path d="M0 0 C3.12 0.19 3.12 0.19 6.12 2.19 C6.47 4.8 6.47 4.8 6.42 8.07 C6.41 9.24 6.4 10.4 6.39 11.61 C6.36 12.83 6.34 14.05 6.31 15.31 C6.3 16.54 6.29 17.77 6.27 19.04 C6.24 22.09 6.19 25.14 6.12 28.19 C7.77 28.52 9.43 28.85 11.12 29.19 C11.15 27.98 11.15 27.98 11.19 26.74 C11.28 23.1 11.39 19.46 11.5 15.81 C11.55 13.91 11.55 13.91 11.59 11.96 C11.63 10.75 11.67 9.54 11.71 8.29 C11.74 7.17 11.77 6.05 11.81 4.89 C12.12 2.19 12.12 2.19 14.12 0.19 C19.46 -0.15 19.46 -0.15 22.12 1.19 C22.12 13.07 22.12 24.95 22.12 37.19 C14.12 37.19 14.12 37.19 11.12 35.19 C11.12 35.85 11.12 36.51 11.12 37.19 C7.99 38.76 5.59 38.54 2.12 38.19 C-0.51 36.01 -2.35 34.24 -3.88 31.19 C-3.97 28.95 -4.01 26.71 -4.01 24.46 C-4.01 23.8 -4.01 23.14 -4.01 22.46 C-4.01 21.07 -4.01 19.67 -4.01 18.27 C-4 16.13 -4.01 13.99 -4.01 11.84 C-4.01 10.49 -4.01 9.13 -4.01 7.78 C-4.01 6.54 -4.01 5.3 -4 4.02 C-3.83 0.19 -3.83 0.25 0 0 Z " fill="#004682" transform="translate(355.875,222.8125)"/>
<path d="M0 0 C3.95 2.15 6.39 4.57 8.17 8.71 C9.13 12.51 9.37 16.11 9.38 20 C9.4 20.69 9.42 21.37 9.45 22.08 C9.48 28.11 7.26 31.38 3.44 35.81 C0.04 38.62 -3.82 38.29 -8 38 C-12.58 36.04 -15.07 32.91 -18 29 C-20.11 22.68 -19.93 14.77 -17.81 8.44 C-13.91 1.03 -8.03 -1.38 0 0 Z M-6 8 C-8.69 10.69 -8.93 12.7 -9.13 16.44 C-9.13 17.28 -9.13 18.13 -9.12 19 C-9.13 19.85 -9.13 20.69 -9.13 21.56 C-9.01 23.85 -8.64 25.81 -8 28 C-6.35 28.33 -4.7 28.66 -3 29 C-0.55 25.33 -0.73 23.43 -0.75 19.06 C-0.74 17.22 -0.74 17.22 -0.73 15.35 C-0.98 12.26 -1.37 10.58 -3 8 C-3.99 8 -4.98 8 -6 8 Z " fill="#004681" transform="translate(451,223)"/>
<path d="M0 0 C4.75 3.24 4.75 3.24 6 7 C6.08 9.28 6.11 11.57 6.1 13.86 C6.1 14.52 6.09 15.18 6.09 15.86 C6.09 17.97 6.08 20.08 6.06 22.19 C6.06 23.62 6.05 25.05 6.05 26.48 C6.04 29.99 6.02 33.49 6 37 C3.03 37 0.06 37 -3 37 C-4.34 34.32 -4.21 32.12 -4.32 29.12 C-4.38 27.37 -4.38 27.37 -4.44 25.58 C-4.48 24.36 -4.52 23.14 -4.56 21.88 C-4.61 20.64 -4.65 19.41 -4.69 18.14 C-4.8 15.1 -4.9 12.05 -5 9 C-6.32 9.33 -7.64 9.66 -9 10 C-9.33 18.91 -9.66 27.82 -10 37 C-12.97 37 -15.94 37 -19 37 C-19.17 31.89 -19.33 26.78 -19.48 21.67 C-19.54 19.93 -19.59 18.2 -19.65 16.46 C-19.73 13.96 -19.81 11.47 -19.88 8.97 C-19.91 8.19 -19.93 7.41 -19.96 6.6 C-20.01 4.74 -20.01 2.87 -20 1 C-19 0 -19 0 -16.86 -0.06 C-15.08 -0.02 -13.31 0.02 -11.54 0.06 C-0.65 -0.21 -0.65 -0.21 0 0 Z " fill="#004682" transform="translate(975,223)"/>
<path d="M0 0 C3.81 2.89 6.18 6.49 7.12 11.12 C7.76 18.55 8.2 25.66 4.12 32.12 C0.04 35.91 -2.95 37.65 -8.64 37.61 C-13.56 36.54 -17.3 32.41 -20.08 28.37 C-22.4 21.83 -22.07 11.56 -19.19 5.31 C-14.62 -0.99 -7.44 -3.49 0 0 Z M-9.54 8.68 C-11.34 11.97 -11.24 14.46 -11.19 18.18 C-11.18 19.41 -11.18 20.64 -11.18 21.91 C-11.12 25.27 -11.12 25.27 -8.88 28.12 C-7.22 27.79 -5.58 27.46 -3.88 27.12 C-2.65 16.94 -2.65 16.94 -4.88 7.12 C-7.89 6.78 -7.89 6.78 -9.54 8.68 Z M-2.88 11.12 C-1.88 14.12 -1.88 14.12 -1.88 14.12 Z M-2.88 21.12 C-1.88 25.12 -1.88 25.12 -1.88 25.12 Z " fill="#004681" transform="translate(1076.875,223.87890625)"/>
<path d="M0 0 C3.91 2.63 6.51 5.53 8 10 C8.09 11.87 8.13 13.75 8.12 15.62 C8.13 17.1 8.13 17.1 8.13 18.6 C8 21 8 21 7 22 C4.14 22.07 1.3 22.09 -1.56 22.06 C-2.37 22.06 -3.18 22.05 -4.01 22.05 C-6 22.04 -8 22.02 -10 22 C-9.34 23.98 -8.68 25.96 -8 28 C-5.63 28.25 -5.63 28.25 -3 28 C-2.35 27.23 -2.35 27.23 -1.69 26.44 C0 25 0 25 1.96 25.02 C3.98 25.29 5.99 25.64 8 26 C7.5 30.41 6.04 32.79 3 36 C-0.05 38.28 -3.21 38.42 -6.98 38.31 C-11.58 37.6 -14.28 34.87 -17.14 31.41 C-19.48 27.11 -19.65 23.93 -19.56 19.12 C-19.55 18.33 -19.55 17.53 -19.54 16.7 C-19.36 11.49 -18.69 7.58 -15.48 3.31 C-11.01 -0.64 -5.72 -1.18 0 0 Z M-7 8 C-9.46 10.6 -9.46 10.6 -10 14 C-7.36 14 -4.72 14 -2 14 C-2.33 12.02 -2.66 10.04 -3 8 C-4.32 8 -5.64 8 -7 8 Z " fill="#004682" transform="translate(1186,223)"/>
<path d="M0 0 C4.12 1.93 6.96 5.45 8.53 9.71 C10.14 17.55 10.22 26.06 6 33 C2.71 36.91 0.4 37.81 -4.69 38.5 C-9.49 38.46 -11.94 36.08 -15.34 32.92 C-19.96 27.58 -19.56 21.68 -19.39 14.94 C-18.78 8.79 -16.64 5.36 -12.13 1.33 C-8.32 -1.05 -4.34 -0.72 0 0 Z M-6 8 C-9.35 11.53 -9.38 14.3 -9.31 19.06 C-9.31 20.29 -9.3 21.52 -9.3 22.79 C-9.24 26.15 -9.24 26.15 -7 29 C-5.35 28.67 -3.7 28.34 -2 28 C-1.3 21.49 -0.68 15.45 -2 9 C-3.32 8.67 -4.64 8.34 -6 8 Z M-1 12 C0 15 0 15 0 15 Z M-1 22 C0 26 0 26 0 26 Z " fill="#004681" transform="translate(822,223)"/>
<path d="M0 0 C5.31 3.58 5.31 3.58 6.53 6.86 C6.8 8.78 6.8 8.78 6.8 11.91 C1.43 12.26 1.43 12.26 -1.2 11.91 C-3.2 9.91 -3.2 9.91 -4.2 7.91 C-5.19 8.24 -6.18 8.57 -7.2 8.91 C-7.53 9.9 -7.86 10.89 -8.2 11.91 C-7.33 12.15 -6.47 12.4 -5.57 12.66 C0.09 14.75 4.64 17.68 7.8 22.91 C8.43 27.2 8.09 29.34 6.11 33.22 C3.2 36.6 1.28 37.63 -3.12 38.12 C-8.96 38.4 -11.97 36.76 -16.45 33.03 C-18.43 30.62 -18.86 28.97 -19.2 25.91 C-15.97 24.29 -12.6 25.09 -9.2 25.91 C-7.39 27.47 -7.39 27.47 -6.2 28.91 C-5.21 28.91 -4.22 28.91 -3.2 28.91 C-3.37 26.48 -3.37 26.48 -4.2 23.91 C-6.08 22.44 -6.08 22.44 -8.45 21.47 C-13 19.13 -15.58 17.36 -18.2 12.91 C-18.57 9.98 -18.24 7.66 -17.2 4.91 C-12.72 -0.63 -6.9 -3.43 0 0 Z " fill="#004581" transform="translate(401.19921875,223.09375)"/>
<path d="M0 0 C4.11 2.52 6.63 4.66 7.94 9.38 C7.96 10.24 7.98 11.11 8 12 C0.57 12.5 0.57 12.5 -2.31 10 C-3.15 9.01 -3.15 9.01 -4 8 C-4.99 8 -5.98 8 -7 8 C-6.78 9.95 -6.78 9.95 -6 12 C-4.33 13.2 -4.33 13.2 -2.25 14 C1.86 15.87 5.91 17.81 8 22 C8.53 25.79 8.83 29.45 6.99 32.89 C4.33 36.18 2.18 37.75 -2.05 38.24 C-7.56 38.42 -10.7 37.79 -15 34 C-16.94 31.5 -16.94 31.5 -18 29 C-17.69 26.69 -17.69 26.69 -17 25 C-14.36 25.33 -11.72 25.66 -9 26 C-8.67 26.99 -8.34 27.98 -8 29 C-6.02 29.33 -4.04 29.66 -2 30 C-1.7 27.15 -1.7 27.15 -3 24 C-5.43 22.45 -7.92 21.32 -10.54 20.14 C-13.47 18.78 -15.27 17.76 -17 15 C-17.47 10.74 -17.44 8.17 -15.94 4.19 C-11.51 -0.81 -6.25 -1.9 0 0 Z " fill="#004580" transform="translate(610,223)"/>
<path d="M0 0 C4.67 3.09 6.73 5.53 8 11 C7 12 7 12 3.19 12.31 C-0.1 12.29 -0.74 12.22 -3.38 10 C-3.91 9.34 -4.45 8.68 -5 8 C-5.66 8 -6.32 8 -7 8 C-6.78 9.95 -6.78 9.95 -6 12 C-4.33 13.2 -4.33 13.2 -2.25 14 C1.86 15.87 5.91 17.81 8 22 C8.54 26.54 8.62 29.95 6.25 33.94 C2.11 37.73 -1.26 38.45 -6.75 38.32 C-11.19 37.69 -13.92 35.12 -16.94 32 C-18 30 -18 30 -17.69 27.75 C-17.46 27.17 -17.23 26.59 -17 26 C-9.45 25.63 -9.45 25.63 -7.19 27.5 C-6.8 28 -6.4 28.49 -6 29 C-5.01 29 -4.02 29 -3 29 C-3.17 26.58 -3.17 26.58 -4 24 C-5.91 22.47 -5.91 22.47 -8.31 21.44 C-15.06 17.96 -15.06 17.96 -17 15 C-17.47 10.74 -17.44 8.17 -15.94 4.19 C-11.49 -0.83 -6.28 -1.83 0 0 Z " fill="#004580" transform="translate(720,223)"/>
<path d="M0 0 C3.17 2.38 5.19 4.64 7.5 7.88 C7.5 9.19 7.5 10.51 7.5 11.88 C4.53 11.88 1.56 11.88 -1.5 11.88 C-2.16 10.56 -2.82 9.24 -3.5 7.88 C-5.48 8.87 -5.48 8.87 -7.5 9.88 C-7.5 10.53 -7.5 11.19 -7.5 11.88 C-6.63 12.12 -5.77 12.37 -4.88 12.62 C1.29 14.91 5.61 17.86 8.5 23.88 C8.96 28.51 8.05 31.19 5.12 34.81 C1.37 37.76 -1.7 38.23 -6.44 38.16 C-11.02 37.53 -13.84 34.55 -16.94 31.38 C-17.45 30.55 -17.97 29.72 -18.5 28.88 C-18.17 27.56 -17.84 26.24 -17.5 24.88 C-14.53 25.2 -11.56 25.53 -8.5 25.88 C-8.5 26.87 -8.5 27.85 -8.5 28.88 C-6.52 28.88 -4.54 28.88 -2.5 28.88 C-2.62 26.44 -2.62 26.44 -3.5 23.88 C-5.65 22.4 -5.65 22.4 -8.31 21.44 C-12.9 19.32 -15.5 17.74 -17.5 12.88 C-17.82 9.95 -17.58 7.62 -16.5 4.88 C-12.2 -0.32 -6.34 -2.85 0 0 Z " fill="#004581" transform="translate(791.5,223.125)"/>
<path d="M0 0 C4.21 2.65 5.75 3.91 6.88 8.81 C6.92 9.86 6.96 10.92 7 12 C1.62 12.35 1.62 12.35 -1 12 C-2.88 10 -2.88 10 -4 8 C-4.66 8 -5.32 8 -6 8 C-6.33 8.99 -6.66 9.98 -7 11 C-6.34 11.38 -5.67 11.75 -4.99 12.14 C5.26 18.08 5.26 18.08 8 22 C8.93 26.59 8.66 29.9 6.25 33.94 C2.11 37.73 -1.26 38.45 -6.75 38.32 C-11.16 37.69 -13.88 35.16 -16.88 32.06 C-18 30 -18 30 -18 25 C-14.7 25.33 -11.4 25.66 -8 26 C-8 26.99 -8 27.98 -8 29 C-6.35 29 -4.7 29 -3 29 C-3.17 26.57 -3.17 26.57 -4 24 C-5.92 22.5 -5.92 22.5 -8.31 21.5 C-12.2 19.5 -14.84 17.95 -17 14 C-17.47 10.23 -17.3 7.79 -15.94 4.25 C-11.55 -0.85 -6.29 -1.83 0 0 Z " fill="#004581" transform="translate(749,223)"/>
<path d="M0 0 C3.12 0.25 3.12 0.25 4.68 1.25 C6.9 4.32 7.5 7.81 8.31 11.44 C8.49 12.19 8.67 12.94 8.85 13.71 C9.28 15.55 9.71 17.4 10.12 19.25 C10.39 18.05 10.66 16.84 10.93 15.6 C11.29 14.03 11.64 12.45 12 10.88 C12.26 9.68 12.26 9.68 12.53 8.47 C12.79 7.33 12.79 7.33 13.05 6.16 C13.21 5.46 13.37 4.76 13.53 4.04 C14.12 2.25 14.12 2.25 16.12 0.25 C21.46 -0.08 21.46 -0.08 24.12 1.25 C23.54 8.88 21.75 15.85 19.62 23.19 C19.3 24.32 18.98 25.46 18.65 26.63 C16.29 34.93 16.29 34.93 15.12 37.25 C11.83 37.25 8.53 37.25 5.12 37.25 C2.8 32.39 1.53 27.9 0.65 22.58 C0.12 20.21 -0.72 18.39 -1.88 16.25 C-3.39 11.38 -3.88 6.32 -3.88 1.25 C-2.88 0.25 -2.88 0.25 0 0 Z M10.12 23.25 C11.12 25.25 11.12 25.25 11.12 25.25 Z " fill="#004682" transform="translate(1090.875,222.75)"/>
<path d="M0 0 C3.92 2.94 6.96 5.96 8.31 10.75 C8.37 11.45 8.44 12.15 8.5 12.88 C5.2 12.88 1.9 12.88 -1.5 12.88 C-2.16 11.56 -2.82 10.24 -3.5 8.88 C-4.49 8.88 -5.48 8.88 -6.5 8.88 C-8.15 12.18 -7.6 15.87 -7.56 19.5 C-7.56 20.3 -7.55 21.1 -7.55 21.93 C-7.54 23.91 -7.52 25.89 -7.5 27.88 C-6.18 27.88 -4.86 27.88 -3.5 27.88 C-3.29 27.24 -3.09 26.6 -2.88 25.94 C-1.5 23.88 -1.5 23.88 1.44 23.06 C4.5 22.88 4.5 22.88 7.5 23.88 C8 29.16 6.85 31.78 3.5 35.88 C0.51 38.22 -2.73 38.3 -6.48 38.19 C-11.08 37.48 -13.78 34.75 -16.64 31.28 C-18.98 26.99 -19.15 23.81 -19.06 19 C-19.05 18.2 -19.04 17.4 -19.03 16.58 C-18.85 11.42 -18.32 7.35 -14.99 3.22 C-10.4 -0.93 -5.74 -2.58 0 0 Z " fill="#004681" transform="translate(339.5,223.125)"/>
<path d="M0 0 C3 0.19 3 0.19 5 1.19 C5.59 3.84 5.74 6.48 6 9.19 C7.32 9.52 8.64 9.85 10 10.19 C10.33 12.5 10.66 14.81 11 17.19 C9.02 17.52 7.04 17.85 5 18.19 C5 24.79 5 31.39 5 38.19 C6.65 38.85 8.3 39.51 10 40.19 C10 42.17 10 44.15 10 46.19 C7.13 47.62 5.19 47.49 2 47.19 C-3.58 44.03 -3.58 44.03 -5 41.19 C-5.15 39.45 -5.25 37.71 -5.32 35.96 C-5.36 34.93 -5.4 33.9 -5.44 32.84 C-5.48 31.76 -5.52 30.68 -5.56 29.56 C-5.61 28.47 -5.65 27.39 -5.69 26.27 C-5.8 23.57 -5.9 20.88 -6 18.19 C-6.99 17.86 -7.98 17.53 -9 17.19 C-9.62 14.31 -9.62 14.31 -10 11.19 C-9.34 10.53 -8.68 9.87 -8 9.19 C-7.01 9.19 -6.02 9.19 -5 9.19 C-5.04 8.07 -5.08 6.96 -5.12 5.81 C-4.97 1.3 -4.57 0.29 0 0 Z " fill="#004682" transform="translate(892,213.8125)"/>
<path d="M0 0 C3 0.19 3 0.19 5 1.19 C5.59 3.84 5.74 6.48 6 9.19 C7.65 9.85 9.3 10.51 11 11.19 C11.04 13.19 11.04 15.19 11 17.19 C10.67 17.52 10.34 17.85 10 18.19 C8.35 18.19 6.7 18.19 5 18.19 C5.33 24.46 5.66 30.73 6 37.19 C7.32 37.85 8.64 38.51 10 39.19 C10.75 42.31 10.75 42.31 11 45.19 C7.46 47.55 6.17 47.76 2 47.19 C-0.93 45.37 -3.43 43.32 -5 40.19 C-5.08 38.52 -5.11 36.85 -5.1 35.18 C-5.09 33.7 -5.09 33.7 -5.09 32.19 C-5.08 31.16 -5.07 30.13 -5.06 29.06 C-5.06 28.02 -5.05 26.98 -5.05 25.91 C-5.04 23.34 -5.02 20.76 -5 18.19 C-5.99 18.19 -6.98 18.19 -8 18.19 C-8.33 15.55 -8.66 12.91 -9 10.19 C-7.68 9.86 -6.36 9.53 -5 9.19 C-5.04 8.07 -5.08 6.96 -5.12 5.81 C-4.97 1.3 -4.57 0.29 0 0 Z M-4 2.19 C-4 4.83 -4 7.47 -4 10.19 C-3.67 10.19 -3.34 10.19 -3 10.19 C-3 7.55 -3 4.91 -3 2.19 C-3.33 2.19 -3.66 2.19 -4 2.19 Z " fill="#004682" transform="translate(419,213.8125)"/>
<path d="M0 0 C6.58 0.58 6.58 0.58 8 2 C8.09 3.5 8.12 5.01 8.11 6.52 C8.11 7.48 8.11 8.44 8.11 9.43 C8.11 10.48 8.1 11.52 8.1 12.6 C8.1 13.66 8.09 14.73 8.09 15.82 C8.09 19.24 8.08 22.65 8.06 26.06 C8.06 28.37 8.05 30.68 8.05 32.99 C8.04 38.66 8.02 44.33 8 50 C1.95 50.2 1.95 50.2 0 50 C-2.44 47.56 -2.25 46.93 -2.26 43.58 C-2.27 42.67 -2.27 41.75 -2.28 40.81 C-2.27 39.82 -2.27 38.83 -2.27 37.81 C-2.27 36.8 -2.27 35.79 -2.27 34.74 C-2.27 32.6 -2.27 30.45 -2.26 28.31 C-2.25 25.01 -2.26 21.72 -2.27 18.43 C-2.27 16.35 -2.27 14.27 -2.27 12.19 C-2.27 11.2 -2.27 10.21 -2.28 9.19 C-2.27 8.27 -2.27 7.36 -2.26 6.42 C-2.26 5.61 -2.26 4.8 -2.25 3.97 C-2 2 -2 2 0 0 Z " fill="#004784" transform="translate(838,210)"/>
<path d="M0 0 C1.64 0.25 1.64 0.25 3.31 0.5 C7.7 1.11 7.7 1.11 12 0.44 C14 0 14 0 17 1 C17 3.97 17 6.94 17 10 C15.87 10.45 14.73 10.91 13.56 11.38 C9.95 12.57 9.95 12.57 9 15 C8.85 16.67 8.75 18.34 8.68 20.01 C8.64 20.99 8.6 21.98 8.56 23 C8.52 24.03 8.48 25.06 8.44 26.12 C8.39 27.17 8.35 28.21 8.31 29.28 C8.2 31.85 8.1 34.43 8 37 C5.03 37 2.06 37 -1 37 C-3.25 32.51 -2.19 26.34 -2.19 21.34 C-2.19 19.07 -2.21 16.81 -2.22 14.54 C-2.23 13.1 -2.23 11.66 -2.23 10.22 C-2.23 8.91 -2.24 7.6 -2.24 6.25 C-2 3 -2 3 0 0 Z " fill="#004683" transform="translate(1201,223)"/>
<path d="M0 0 C2.76 0.18 5.49 0.52 8.24 0.84 C10.83 0.99 12.53 0.63 15 0 C15.99 0.33 16.98 0.66 18 1 C18 3.97 18 6.94 18 10 C12.25 12 12.25 12 10 12 C9.67 20.25 9.34 28.5 9 37 C6.03 37 3.06 37 0 37 C-0.17 31.89 -0.33 26.78 -0.48 21.67 C-0.54 19.93 -0.59 18.2 -0.65 16.46 C-0.73 13.96 -0.81 11.47 -0.88 8.97 C-0.91 8.19 -0.93 7.41 -0.96 6.6 C-1.01 4.74 -1.01 2.87 -1 1 C-0.67 0.67 -0.34 0.34 0 0 Z M9 2 C9 5 9 5 9 5 Z " fill="#004783" transform="translate(1036,223)"/>
<path d="M0 0 C3 0.19 3 0.19 5 1.19 C5 13.07 5 24.95 5 37.19 C2.03 37.19 -0.94 37.19 -4 37.19 C-5.79 31.83 -5.19 26.01 -5.19 20.4 C-5.19 18.13 -5.21 15.86 -5.22 13.59 C-5.23 12.15 -5.23 10.72 -5.23 9.28 C-5.23 7.97 -5.24 6.66 -5.24 5.3 C-4.92 1.11 -4.22 0.26 0 0 Z " fill="#004784" transform="translate(911,222.8125)"/>
<path d="M0 0 C3.12 0.19 3.12 0.19 6.12 2.19 C6.4 4.8 6.5 7.17 6.45 9.79 C6.45 10.91 6.45 10.91 6.45 12.06 C6.44 13.64 6.43 15.23 6.41 16.81 C6.38 19.24 6.37 21.68 6.36 24.11 C6.35 25.65 6.34 27.19 6.33 28.72 C6.32 29.82 6.32 29.82 6.32 30.94 C6.24 36.07 6.24 36.07 5.12 37.19 C2.45 37.33 -0.2 37.23 -2.88 37.19 C-3.04 32.08 -3.2 26.97 -3.36 21.86 C-3.41 20.12 -3.47 18.38 -3.52 16.64 C-3.6 14.15 -3.68 11.65 -3.75 9.16 C-3.78 8.38 -3.81 7.6 -3.84 6.79 C-3.89 4.92 -3.89 3.05 -3.88 1.19 C-2.88 0.19 -2.88 0.19 0 0 Z " fill="#004784" transform="translate(1122.875,222.8125)"/>
<path d="M0 0 C3.12 0.19 3.12 0.19 6.12 2.19 C6.4 4.8 6.5 7.17 6.45 9.79 C6.45 10.91 6.45 10.91 6.45 12.06 C6.44 13.64 6.43 15.23 6.41 16.81 C6.38 19.24 6.37 21.68 6.36 24.11 C6.35 25.65 6.34 27.19 6.33 28.72 C6.32 29.82 6.32 29.82 6.32 30.94 C6.24 36.07 6.24 36.07 5.12 37.19 C2.45 37.33 -0.2 37.23 -2.88 37.19 C-3.04 32.08 -3.2 26.97 -3.36 21.86 C-3.41 20.12 -3.47 18.38 -3.52 16.64 C-3.6 14.15 -3.68 11.65 -3.75 9.16 C-3.78 8.38 -3.81 7.6 -3.84 6.79 C-3.89 4.92 -3.89 3.05 -3.88 1.19 C-2.88 0.19 -2.88 0.19 0 0 Z " fill="#004784" transform="translate(626.875,222.8125)"/>
<path d="M0 0 C0.33 0 0.66 0 1 0 C1 48.84 1 97.68 1 148 C0.67 148 0.34 148 0 148 C0 99.16 0 50.32 0 0 Z " fill="#004580" transform="translate(671,40)"/>
<path d="M0 0 C3 0.19 3 0.19 5 1.19 C5 4.16 5 7.13 5 10.19 C-1.41 10.55 -1.41 10.55 -3.94 9 C-5.36 6.57 -5.36 4.96 -5 2.19 C-3 0.19 -3 0.19 0 0 Z " fill="#004A88" transform="translate(911,209.8125)"/>
<path d="M0 0 C6.58 0.58 6.58 0.58 8 2 C8.12 5.5 8.12 5.5 8 9 C7 10 7 10 3.56 10.25 C2.39 10.17 1.21 10.09 0 10 C-2.15 6.78 -2.38 5.73 -2 2 C-1.34 1.34 -0.68 0.68 0 0 Z " fill="#004A89" transform="translate(625,210)"/>
<path d="M0 0 C3.12 0.19 3.12 0.19 6.12 2.19 C6.38 5.75 6.38 5.75 6.12 9.19 C5.12 10.19 5.12 10.19 3.28 10.29 C1.23 10.25 -0.82 10.22 -2.88 10.19 C-3.07 8.71 -3.26 7.23 -3.44 5.75 C-3.54 4.93 -3.65 4.1 -3.75 3.25 C-3.79 2.57 -3.83 1.89 -3.88 1.19 C-2.88 0.19 -2.88 0.19 0 0 Z " fill="#004A88" transform="translate(1122.875,209.8125)"/>
<path d="M0 0 C0.33 0 0.66 0 1 0 C1 10.89 1 21.78 1 33 C0.67 33 0.34 33 0 33 C0 22.11 0 11.22 0 0 Z " fill="#004580" transform="translate(954,225)"/>
<path d="M0 0 C0.33 0 0.66 0 1 0 C1 10.56 1 21.12 1 32 C0.67 32 0.34 32 0 32 C0 21.44 0 10.88 0 0 Z " fill="#004580" transform="translate(1118,225)"/>
<path d="M0 0 C0.33 0 0.66 0 1 0 C1 10.56 1 21.12 1 32 C0.67 32 0.34 32 0 32 C0 21.44 0 10.88 0 0 Z " fill="#004580" transform="translate(1034,225)"/>
<path d="M0 0 C0.33 0 0.66 0 1 0 C1 10.56 1 21.12 1 32 C0.67 32 0.34 32 0 32 C0 21.44 0 10.88 0 0 Z " fill="#004580" transform="translate(622,225)"/>
<path d="M0 0 C0.33 0 0.66 0 1 0 C1 9.57 1 19.14 1 29 C0.67 29 0.34 29 0 29 C0 19.43 0 9.86 0 0 Z " fill="#20B9BE" transform="translate(79,170)"/>
<path d="M0 0 C0.33 0 0.66 0 1 0 C1 9.24 1 18.48 1 28 C0.67 28 0.34 28 0 28 C0 18.76 0 9.52 0 0 Z " fill="#004580" transform="translate(351,225)"/>
<path d="M0 0 C0.33 0 0.66 0 1 0 C1 9.24 1 18.48 1 28 C0.67 28 0.34 28 0 28 C0 18.76 0 9.52 0 0 Z " fill="#004580" transform="translate(79,223)"/>
<path d="M0 0 C0.33 0 0.66 0 1 0 C1 3.3 1 6.6 1 10 C0.67 10 0.34 10 0 10 C0 6.7 0 3.4 0 0 Z " fill="#004580" transform="translate(1166,237)"/>
<path d="M0 0 C0.33 0 0.66 0 1 0 C1 2.97 1 5.94 1 9 C0.67 9 0.34 9 0 9 C0 6.03 0 3.06 0 0 Z " fill="#004580" transform="translate(320,238)"/>
<path d="M0 0 C0.33 0 0.66 0 1 0 C1 2.97 1 5.94 1 9 C0.67 9 0.34 9 0 9 C0 6.03 0 3.06 0 0 Z " fill="#004580" transform="translate(784,155)"/>
<path d="M0 0 C2.64 0 5.28 0 8 0 C8 0.33 8 0.66 8 1 C5.36 1 2.72 1 0 1 C0 0.67 0 0.34 0 0 Z " fill="#004580" transform="translate(559,82)"/>
<path d="M0 0 C0.66 0.33 1.32 0.66 2 1 C0.68 1.99 -0.64 2.98 -2 4 C-1.34 2.68 -0.68 1.36 0 0 Z " fill="#004580" transform="translate(579,91)"/>
<path d="M0 0 C1.98 0 3.96 0 6 0 C6 0.33 6 0.66 6 1 C4.02 1 2.04 1 0 1 C0 0.67 0 0.34 0 0 Z " fill="#004580" transform="translate(703,247)"/>
<path d="M0 0 C0.33 0 0.66 0 1 0 C1 1.98 1 3.96 1 6 C0.67 6 0.34 6 0 6 C0 4.02 0 2.04 0 0 Z " fill="#004580" transform="translate(984,135)"/>
<path d="M0 0 C1.65 0 3.3 0 5 0 C5 0.33 5 0.66 5 1 C3.35 1 1.7 1 0 1 C0 0.67 0 0.34 0 0 Z " fill="#004580" transform="translate(1186,247)"/>
<path d="M0 0 C1.65 0 3.3 0 5 0 C5 0.33 5 0.66 5 1 C3.35 1 1.7 1 0 1 C0 0.67 0 0.34 0 0 Z " fill="#004580" transform="translate(775,247)"/>
<path d="M0 0 C1.65 0 3.3 0 5 0 C5 0.33 5 0.66 5 1 C3.35 1 1.7 1 0 1 C0 0.67 0 0.34 0 0 Z " fill="#004580" transform="translate(733,247)"/>
<path d="M0 0 C1.65 0 3.3 0 5 0 C5 0.33 5 0.66 5 1 C3.35 1 1.7 1 0 1 C0 0.67 0 0.34 0 0 Z " fill="#004580" transform="translate(594,247)"/>
<path d="M0 0 C1.65 0 3.3 0 5 0 C5 0.33 5 0.66 5 1 C3.35 1 1.7 1 0 1 C0 0.67 0 0.34 0 0 Z " fill="#004580" transform="translate(384,247)"/>
<path d="M0 0 C0.33 0 0.66 0 1 0 C1 1.65 1 3.3 1 5 C0.67 5 0.34 5 0 5 C0 3.35 0 1.7 0 0 Z " fill="#004580" transform="translate(1118,212)"/>
<path d="M0 0 C4 1 4 1 4 1 Z " fill="#004580" transform="translate(691,247)"/>
<path d="M0 0 C1 4 1 4 1 4 Z " fill="#004580" transform="translate(731,232)"/>
<path d="M0 0 C1 4 1 4 1 4 Z " fill="#004580" transform="translate(409,225)"/>
<path d="M0 0 C4 1 4 1 4 1 Z " fill="#004580" transform="translate(1179,222)"/>
<path d="M0 0 C4 1 4 1 4 1 Z " fill="#004580" transform="translate(934,222)"/>
<path d="M0 0 C4 1 4 1 4 1 Z " fill="#004580" transform="translate(684,222)"/>
<path d="M0 0 C4 1 4 1 4 1 Z " fill="#004580" transform="translate(445,222)"/>
<path d="" fill="#004580" transform="translate(0,0)"/>
<path d="M0 0 C3 1 3 1 3 1 Z " fill="#004580" transform="translate(1145,222)"/>
<path d="M0 0 C3 1 3 1 3 1 Z " fill="#004580" transform="translate(1069,222)"/>
<path d="M0 0 C3 1 3 1 3 1 Z " fill="#004580" transform="translate(816,222)"/>
<path d="M0 0 C3 1 3 1 3 1 Z " fill="#004580" transform="translate(497,222)"/>
<path d="M0 0 C2 1 2 1 2 1 Z " fill="#004580" transform="translate(1018,222)"/>
<path d="M0 0 C2 1 2 1 2 1 Z " fill="#004580" transform="translate(544,222)"/>
<path d="M0 0 C2 1 2 1 2 1 Z " fill="#004580" transform="translate(481,222)"/>
<path d="" fill="#004580" transform="translate(0,0)"/>
<path d="" fill="#004580" transform="translate(0,0)"/>
<path d="" fill="#004580" transform="translate(0,0)"/>
<path d="" fill="#004580" transform="translate(0,0)"/>
<path d="" fill="#000002" transform="translate(0,0)"/>
<path d="" fill="#004580" transform="translate(0,0)"/>
<path d="" fill="#004580" transform="translate(0,0)"/>
<path d="" fill="#004580" transform="translate(0,0)"/>
<path d="" fill="#004580" transform="translate(0,0)"/>
<path d="" fill="#004580" transform="translate(0,0)"/>
<path d="" fill="#004580" transform="translate(0,0)"/>
<path d="" fill="#004580" transform="translate(0,0)"/>
<path d="" fill="#004580" transform="translate(0,0)"/>
<path d="" fill="#004580" transform="translate(0,0)"/>
</svg>